
<svg xmlns="http://www.w3.org/2000/svg" viewBox="0 0 640 480" role="img" aria-label="法國鬥牛犬插圖">
  <defs>
    <linearGradient id="french-bulldog-grad" x1="0" x2="1" y1="0" y2="1">
      <stop offset="0%" stop-color="#f3e8ff" />
      <stop offset="100%" stop-color="#dfd0ff" />
    </linearGradient>
  </defs>
  <rect width="640" height="480" fill="url(#french-bulldog-grad)" rx="28" />
  <circle cx="520" cy="82" r="26" fill="#fdf2f7" opacity="0.7" />
  <circle cx="110" cy="110" r="32" fill="#fdf2f7" opacity="0.7" />
  <circle cx="180" cy="380" r="40" fill="#fdf2f7" opacity="0.55" />
  <path d="M170 330c0-80 70-140 150-140s150 60 150 140" fill="#fef7fb" opacity="0.6" />
  <g transform="translate(180 110)">
    <ellipse cx="140" cy="170" rx="120" ry="90" fill="#d3b6a3" stroke="#98745f" stroke-width="6" />
    <ellipse cx="140" cy="120" rx="90" ry="70" fill="#f1e1d7" stroke="#98745f" stroke-width="6" />
    <path d="M88 58l-36-34c-10-10-24 8-18 20l28 50" fill="#c6a28b" stroke="#98745f" stroke-width="6" stroke-linejoin="round" />
    <path d="M192 58l36-34c10-10 24 8 18 20l-28 50" fill="#c6a28b" stroke="#98745f" stroke-width="6" stroke-linejoin="round" />
    <ellipse cx="112" cy="128" rx="14" ry="18" fill="#312018" />
    <ellipse cx="168" cy="128" rx="14" ry="18" fill="#312018" />
    <path d="M140 160c-18 0-34 8-34 22 0 9 8 17 18 17h32c10 0 18-8 18-17 0-14-16-22-34-22z" fill="#312018" stroke="#1f140f" stroke-width="4" />
    <path d="M112 186c10 14 20 20 28 20s18-6 28-20" fill="none" stroke="#654234" stroke-width="6" stroke-linecap="round" />
    <path d="M120 214c12 10 40 10 52 0" fill="none" stroke="#b88fdc" stroke-width="6" stroke-linecap="round" />
    <circle cx="140" cy="214" r="6" fill="#312018" />
  </g>
  <text x="320" y="440" text-anchor="middle" fill="#65406f" font-family="'Noto Sans TC', 'PingFang TC', sans-serif" font-size="28" font-weight="700">法國鬥牛犬</text>
</svg>
